<svg width="203" height="16" viewBox="0 0 203 16" fill="none" xmlns="http://www.w3.org/2000/svg">
<path d="M192.333 8H197.667" stroke="#787486" stroke-linecap="round" stroke-linejoin="round"/>
<path d="M195 10.6667V5.33333" stroke="#787486" stroke-linecap="round" stroke-linejoin="round"/>
<path d="M193 14.6667H197C200.333 14.6667 201.667 13.3333 201.667 10V6C201.667 2.66667 200.333 1.33333 197 1.33333H193C189.667 1.33333 188.333 2.66667 188.333 6V10C188.333 13.3333 189.667 14.6667 193 14.6667Z" stroke="#787486" stroke-linecap="round" stroke-linejoin="round"/>
<path d="M0.758523 3.27273H3.03409L5.4375 9.13636H5.53977L7.94318 3.27273H10.2188V12H8.42898V6.3196H8.35653L6.09801 11.9574H4.87926L2.62074 6.2983H2.5483V12H0.758523V3.27273ZM11.2276 3.27273H13.2944L15.2844 7.03125H15.3697L17.3597 3.27273H19.4265L16.2433 8.91477V12H14.4109V8.91477L11.2276 3.27273ZM23.2116 12V3.27273H26.6548C27.3168 3.27273 27.8807 3.39915 28.3466 3.65199C28.8125 3.90199 29.1676 4.25 29.4119 4.69602C29.6591 5.1392 29.7827 5.65057 29.7827 6.23011C29.7827 6.80966 29.6577 7.32102 29.4077 7.7642C29.1577 8.20739 28.7955 8.55256 28.321 8.79972C27.8494 9.04687 27.2784 9.17045 26.608 9.17045H24.4134V7.69176H26.3097C26.6648 7.69176 26.9574 7.63068 27.1875 7.50852C27.4205 7.38352 27.5938 7.21165 27.7074 6.9929C27.8239 6.77131 27.8821 6.51705 27.8821 6.23011C27.8821 5.94034 27.8239 5.6875 27.7074 5.47159C27.5938 5.25284 27.4205 5.08381 27.1875 4.96449C26.9545 4.84233 26.6591 4.78125 26.3011 4.78125H25.0568V12H23.2116ZM30.9812 12V3.27273H34.4244C35.0835 3.27273 35.646 3.39062 36.1119 3.62642C36.5806 3.85937 36.9371 4.19034 37.1815 4.61932C37.4286 5.04545 37.5522 5.54687 37.5522 6.12358C37.5522 6.70312 37.4272 7.2017 37.1772 7.61932C36.9272 8.03409 36.565 8.35227 36.0906 8.57386C35.619 8.79545 35.0479 8.90625 34.3775 8.90625H32.0721V7.4233H34.0792C34.4315 7.4233 34.7241 7.375 34.957 7.27841C35.19 7.18182 35.3633 7.03693 35.4769 6.84375C35.5934 6.65057 35.6516 6.41051 35.6516 6.12358C35.6516 5.83381 35.5934 5.58949 35.4769 5.39062C35.3633 5.19176 35.1886 5.04119 34.9528 4.93892C34.7198 4.83381 34.4258 4.78125 34.0707 4.78125H32.8263V12H30.9812ZM35.6942 8.02841L37.8633 12H35.8263L33.7042 8.02841H35.6942ZM46.8761 7.63636C46.8761 8.58807 46.6957 9.39773 46.3349 10.0653C45.9769 10.733 45.4883 11.2429 44.869 11.5952C44.2525 11.9446 43.5593 12.1193 42.7894 12.1193C42.0138 12.1193 41.3178 11.9432 40.7013 11.5909C40.0849 11.2386 39.5977 10.7287 39.2397 10.0611C38.8817 9.39347 38.7028 8.58523 38.7028 7.63636C38.7028 6.68466 38.8817 5.875 39.2397 5.20739C39.5977 4.53977 40.0849 4.03125 40.7013 3.68182C41.3178 3.32955 42.0138 3.15341 42.7894 3.15341C43.5593 3.15341 44.2525 3.32955 44.869 3.68182C45.4883 4.03125 45.9769 4.53977 46.3349 5.20739C46.6957 5.875 46.8761 6.68466 46.8761 7.63636ZM45.0053 7.63636C45.0053 7.01989 44.913 6.5 44.7283 6.0767C44.5465 5.65341 44.2894 5.33239 43.957 5.11364C43.6246 4.89489 43.2354 4.78551 42.7894 4.78551C42.3434 4.78551 41.9542 4.89489 41.6218 5.11364C41.2894 5.33239 41.0309 5.65341 40.8462 6.0767C40.6644 6.5 40.5735 7.01989 40.5735 7.63636C40.5735 8.25284 40.6644 8.77273 40.8462 9.19602C41.0309 9.61932 41.2894 9.94034 41.6218 10.1591C41.9542 10.3778 42.3434 10.4872 42.7894 10.4872C43.2354 10.4872 43.6246 10.3778 43.957 10.1591C44.2894 9.94034 44.5465 9.61932 44.7283 9.19602C44.913 8.77273 45.0053 8.25284 45.0053 7.63636ZM51.7372 3.27273H53.5611V9.35795C53.5611 9.92045 53.4347 10.4091 53.1818 10.8239C52.9318 11.2386 52.5838 11.5582 52.1378 11.7827C51.6918 12.0071 51.1733 12.1193 50.5824 12.1193C50.0568 12.1193 49.5795 12.027 49.1506 11.8423C48.7244 11.6548 48.3864 11.3707 48.1364 10.9901C47.8864 10.6065 47.7628 10.125 47.7656 9.54545H49.6023C49.608 9.77557 49.6548 9.97301 49.7429 10.1378C49.8338 10.2997 49.9574 10.4247 50.1136 10.5128C50.2727 10.598 50.4602 10.6406 50.6761 10.6406C50.9034 10.6406 51.0952 10.5923 51.2514 10.4957C51.4105 10.3963 51.5313 10.2514 51.6136 10.0611C51.696 9.87074 51.7372 9.63636 51.7372 9.35795V3.27273ZM55.0866 12V3.27273H60.9673V4.79403H56.9318V6.87358H60.6648V8.39489H56.9318V10.4787H60.9844V12H55.0866ZM70.1346 6.32812H68.2681C68.234 6.08665 68.1644 5.87216 68.0593 5.68466C67.9542 5.49432 67.8192 5.33239 67.6545 5.19886C67.4897 5.06534 67.2994 4.96307 67.0835 4.89205C66.8704 4.82102 66.6388 4.78551 66.3888 4.78551C65.9371 4.78551 65.5437 4.89773 65.2085 5.12216C64.8732 5.34375 64.6133 5.66761 64.4286 6.09375C64.244 6.51705 64.1516 7.03125 64.1516 7.63636C64.1516 8.25852 64.244 8.78125 64.4286 9.20455C64.6161 9.62784 64.8775 9.94744 65.2127 10.1634C65.5479 10.3793 65.9357 10.4872 66.3761 10.4872C66.6232 10.4872 66.8519 10.4545 67.0621 10.3892C67.2752 10.3239 67.4641 10.2287 67.6289 10.1037C67.7937 9.97585 67.93 9.82102 68.038 9.6392C68.1488 9.45739 68.2255 9.25 68.2681 9.01705L70.1346 9.02557C70.0863 9.42614 69.9656 9.8125 69.7724 10.1847C69.582 10.554 69.3249 10.8849 69.0011 11.1776C68.68 11.4673 68.2965 11.6974 67.8505 11.8679C67.4073 12.0355 66.9059 12.1193 66.3462 12.1193C65.5678 12.1193 64.8718 11.9432 64.2582 11.5909C63.6474 11.2386 63.1644 10.7287 62.8093 10.0611C62.457 9.39347 62.2809 8.58523 62.2809 7.63636C62.2809 6.68466 62.4599 5.875 62.8178 5.20739C63.1758 4.53977 63.6616 4.03125 64.2752 3.68182C64.8888 3.32955 65.5792 3.15341 66.3462 3.15341C66.8519 3.15341 67.3207 3.22443 67.7525 3.36648C68.1871 3.50852 68.5721 3.71591 68.9073 3.98864C69.2425 4.25852 69.5153 4.58949 69.7255 4.98153C69.9386 5.37358 70.0749 5.82244 70.1346 6.32812ZM71.1254 4.79403V3.27273H78.293V4.79403H75.6211V12H73.7972V4.79403H71.1254ZM84.2077 5.78267C84.1737 5.43892 84.0273 5.17187 83.7688 4.98153C83.5103 4.79119 83.1594 4.69602 82.7163 4.69602C82.4151 4.69602 82.1609 4.73864 81.9535 4.82386C81.7461 4.90625 81.587 5.02131 81.4762 5.16903C81.3683 5.31676 81.3143 5.48438 81.3143 5.67188C81.3086 5.82812 81.3413 5.96449 81.4123 6.08097C81.4862 6.19744 81.587 6.2983 81.7148 6.38352C81.8427 6.46591 81.9904 6.53835 82.158 6.60085C82.3256 6.66051 82.5046 6.71165 82.695 6.75426L83.479 6.94176C83.8597 7.02699 84.2092 7.14062 84.5273 7.28267C84.8455 7.42472 85.1211 7.59943 85.354 7.80682C85.587 8.0142 85.7674 8.25852 85.8952 8.53977C86.0259 8.82102 86.0927 9.14347 86.0955 9.5071C86.0927 10.0412 85.9563 10.5043 85.6864 10.8963C85.4194 11.2855 85.033 11.5881 84.5273 11.804C84.0245 12.017 83.418 12.1236 82.7077 12.1236C82.0032 12.1236 81.3896 12.0156 80.8668 11.7997C80.3469 11.5838 79.9407 11.2642 79.6481 10.8409C79.3583 10.4148 79.2063 9.88778 79.1921 9.25994H80.9776C80.9975 9.55256 81.0813 9.79687 81.229 9.9929C81.3796 10.1861 81.5799 10.3324 81.8299 10.4318C82.0827 10.5284 82.3683 10.5767 82.6864 10.5767C82.9989 10.5767 83.2702 10.5312 83.5004 10.4403C83.7333 10.3494 83.9137 10.223 84.0415 10.0611C84.1694 9.89915 84.2333 9.71307 84.2333 9.50284C84.2333 9.30682 84.1751 9.14205 84.0586 9.00852C83.945 8.875 83.7773 8.76136 83.5558 8.66761C83.337 8.57386 83.0685 8.48864 82.7504 8.41193L81.8001 8.1733C81.0643 7.99432 80.4833 7.71449 80.0572 7.33381C79.631 6.95312 79.4194 6.44034 79.4222 5.79545C79.4194 5.26705 79.56 4.8054 79.8441 4.41051C80.131 4.01562 80.5245 3.70739 81.0245 3.4858C81.5245 3.2642 82.0927 3.15341 82.729 3.15341C83.3768 3.15341 83.9421 3.2642 84.4251 3.4858C84.9109 3.70739 85.2887 4.01562 85.5586 4.41051C85.8285 4.8054 85.9677 5.26278 85.9762 5.78267H84.2077Z" fill="#787486"/>
</svg>
