<svg width="139" height="19" viewBox="0 0 139 19" fill="none" xmlns="http://www.w3.org/2000/svg">
<path d="M29.0455 15H25.2784V3.36364H29.1648C30.3049 3.36364 31.2841 3.59659 32.1023 4.0625C32.9205 4.52462 33.5473 5.18939 33.983 6.05682C34.4223 6.92045 34.642 7.95644 34.642 9.16477C34.642 10.3769 34.4205 11.4186 33.9773 12.2898C33.5379 13.161 32.9015 13.8314 32.0682 14.3011C31.2348 14.767 30.2273 15 29.0455 15ZM27.0341 13.4659H28.9489C29.8352 13.4659 30.572 13.2992 31.1591 12.9659C31.7462 12.6288 32.1856 12.142 32.4773 11.5057C32.7689 10.8655 32.9148 10.0852 32.9148 9.16477C32.9148 8.25189 32.7689 7.47727 32.4773 6.84091C32.1894 6.20455 31.7595 5.72159 31.1875 5.39205C30.6155 5.0625 29.9053 4.89773 29.0568 4.89773H27.0341V13.4659ZM40.4503 15.1761C39.5904 15.1761 38.8499 14.9924 38.2287 14.625C37.6113 14.2538 37.134 13.733 36.7969 13.0625C36.4635 12.3883 36.2969 11.5985 36.2969 10.6932C36.2969 9.79924 36.4635 9.01136 36.7969 8.32955C37.134 7.64773 37.6037 7.11553 38.206 6.73295C38.812 6.35038 39.5204 6.15909 40.331 6.15909C40.8234 6.15909 41.3007 6.24053 41.7628 6.40341C42.2249 6.56629 42.6397 6.82197 43.0071 7.17045C43.3745 7.51894 43.6643 7.97159 43.8764 8.52841C44.0885 9.08144 44.1946 9.75379 44.1946 10.5455V11.1477H37.2571V9.875H42.5298C42.5298 9.42803 42.4389 9.0322 42.2571 8.6875C42.0753 8.33902 41.8196 8.06439 41.4901 7.86364C41.1643 7.66288 40.7817 7.5625 40.3423 7.5625C39.8651 7.5625 39.4484 7.67992 39.0923 7.91477C38.7401 8.14583 38.4673 8.44886 38.2741 8.82386C38.0848 9.19508 37.9901 9.59848 37.9901 10.0341V11.0284C37.9901 11.6117 38.0923 12.108 38.2969 12.517C38.5052 12.9261 38.795 13.2386 39.1662 13.4545C39.5374 13.6667 39.9711 13.7727 40.4673 13.7727C40.7893 13.7727 41.0829 13.7273 41.348 13.6364C41.6132 13.5417 41.8423 13.4015 42.0355 13.2159C42.2287 13.0303 42.3764 12.8011 42.4787 12.5284L44.0866 12.8182C43.9579 13.2917 43.7268 13.7064 43.3935 14.0625C43.0639 14.4148 42.6491 14.6894 42.1491 14.8864C41.6529 15.0795 41.0866 15.1761 40.4503 15.1761ZM52.6193 8.40341L51.0795 8.67614C51.0152 8.47917 50.9129 8.29167 50.7727 8.11364C50.6364 7.93561 50.4508 7.78977 50.2159 7.67614C49.9811 7.5625 49.6875 7.50568 49.3352 7.50568C48.8542 7.50568 48.4527 7.61364 48.1307 7.82955C47.8087 8.04167 47.6477 8.31629 47.6477 8.65341C47.6477 8.94508 47.7557 9.17992 47.9716 9.35795C48.1875 9.53598 48.536 9.68182 49.017 9.79545L50.4034 10.1136C51.2064 10.2992 51.8049 10.5852 52.1989 10.9716C52.5928 11.358 52.7898 11.8598 52.7898 12.4773C52.7898 13 52.6383 13.4659 52.3352 13.875C52.036 14.2803 51.6174 14.5985 51.0795 14.8295C50.5455 15.0606 49.9261 15.1761 49.2216 15.1761C48.2443 15.1761 47.447 14.9678 46.8295 14.5511C46.2121 14.1307 45.8333 13.5341 45.6932 12.7614L47.3352 12.5114C47.4375 12.9394 47.6477 13.2633 47.9659 13.483C48.2841 13.6989 48.6989 13.8068 49.2102 13.8068C49.767 13.8068 50.2121 13.6913 50.5455 13.4602C50.8788 13.2254 51.0455 12.9394 51.0455 12.6023C51.0455 12.3295 50.9432 12.1004 50.7386 11.9148C50.5379 11.7292 50.2292 11.589 49.8125 11.4943L48.3352 11.1705C47.5208 10.9848 46.9186 10.6894 46.5284 10.2841C46.142 9.87879 45.9489 9.36553 45.9489 8.74432C45.9489 8.22917 46.0928 7.77841 46.3807 7.39205C46.6686 7.00568 47.0663 6.70455 47.5739 6.48864C48.0814 6.26894 48.6629 6.15909 49.3182 6.15909C50.2614 6.15909 51.0038 6.36364 51.5455 6.77273C52.0871 7.17803 52.4451 7.72159 52.6193 8.40341ZM54.6577 15V6.27273H56.3565V15H54.6577ZM55.5156 4.92614C55.2202 4.92614 54.9664 4.82765 54.7543 4.63068C54.5459 4.42992 54.4418 4.19129 54.4418 3.91477C54.4418 3.63447 54.5459 3.39583 54.7543 3.19886C54.9664 2.99811 55.2202 2.89773 55.5156 2.89773C55.8111 2.89773 56.063 2.99811 56.2713 3.19886C56.4834 3.39583 56.5895 3.63447 56.5895 3.91477C56.5895 4.19129 56.4834 4.42992 56.2713 4.63068C56.063 4.82765 55.8111 4.92614 55.5156 4.92614ZM62.3011 18.4545C61.608 18.4545 61.0114 18.3636 60.5114 18.1818C60.0152 18 59.6098 17.7595 59.2955 17.4602C58.9811 17.161 58.7462 16.8333 58.5909 16.4773L60.0511 15.875C60.1534 16.0417 60.2898 16.2178 60.4602 16.4034C60.6345 16.5928 60.8693 16.7538 61.1648 16.8864C61.464 17.0189 61.8485 17.0852 62.3182 17.0852C62.9621 17.0852 63.4943 16.928 63.9148 16.6136C64.3352 16.303 64.5455 15.8068 64.5455 15.125V13.4091H64.4375C64.3352 13.5947 64.1875 13.8011 63.9943 14.0284C63.8049 14.2557 63.5436 14.4527 63.2102 14.6193C62.8769 14.786 62.4432 14.8693 61.9091 14.8693C61.2197 14.8693 60.5985 14.7083 60.0455 14.3864C59.4962 14.0606 59.0606 13.5814 58.7386 12.9489C58.4205 12.3125 58.2614 11.5303 58.2614 10.6023C58.2614 9.67424 58.4186 8.87879 58.733 8.21591C59.0511 7.55303 59.4867 7.04545 60.0398 6.69318C60.5928 6.33712 61.2197 6.15909 61.9205 6.15909C62.4621 6.15909 62.8996 6.25 63.233 6.43182C63.5663 6.60985 63.8258 6.81818 64.0114 7.05682C64.2008 7.29545 64.3466 7.50568 64.4489 7.6875H64.5739V6.27273H66.2386V15.1932C66.2386 15.9432 66.0644 16.5587 65.7159 17.0398C65.3674 17.5208 64.8958 17.8769 64.3011 18.108C63.7102 18.339 63.0436 18.4545 62.3011 18.4545ZM62.2841 13.4602C62.7727 13.4602 63.1856 13.3466 63.5227 13.1193C63.8636 12.8883 64.1212 12.5587 64.2955 12.1307C64.4735 11.6989 64.5625 11.1818 64.5625 10.5795C64.5625 9.99242 64.4754 9.47538 64.3011 9.02841C64.1269 8.58144 63.8712 8.23295 63.5341 7.98295C63.197 7.72917 62.7803 7.60227 62.2841 7.60227C61.7727 7.60227 61.3466 7.73485 61.0057 8C60.6648 8.26136 60.4072 8.61742 60.233 9.06818C60.0625 9.51894 59.9773 10.0227 59.9773 10.5795C59.9773 11.1515 60.0644 11.6534 60.2386 12.0852C60.4129 12.517 60.6705 12.8542 61.0114 13.0966C61.3561 13.339 61.7803 13.4602 62.2841 13.4602ZM70.2159 9.81818V15H68.517V6.27273H70.1477V7.69318H70.2557C70.4564 7.23106 70.7708 6.85985 71.1989 6.57955C71.6307 6.29924 72.1742 6.15909 72.8295 6.15909C73.4242 6.15909 73.9451 6.28409 74.392 6.53409C74.839 6.7803 75.1856 7.14773 75.4318 7.63636C75.678 8.125 75.8011 8.72917 75.8011 9.44886V15H74.1023V9.65341C74.1023 9.02083 73.9375 8.52652 73.608 8.17045C73.2784 7.81061 72.8258 7.63068 72.25 7.63068C71.8561 7.63068 71.5057 7.71591 71.1989 7.88636C70.8958 8.05682 70.6553 8.30682 70.4773 8.63636C70.303 8.96212 70.2159 9.35606 70.2159 9.81818ZM88.7969 6.42045C88.7363 5.88258 88.4863 5.46591 88.0469 5.17045C87.6075 4.87121 87.0545 4.72159 86.3878 4.72159C85.9105 4.72159 85.4976 4.79735 85.1491 4.94886C84.8007 5.09659 84.5298 5.30114 84.3366 5.5625C84.1473 5.82008 84.0526 6.11364 84.0526 6.44318C84.0526 6.7197 84.117 6.95833 84.2457 7.15909C84.3783 7.35985 84.5507 7.52841 84.7628 7.66477C84.9787 7.79735 85.2098 7.90909 85.456 8C85.7022 8.08712 85.9389 8.15909 86.1662 8.21591L87.3026 8.51136C87.6738 8.60227 88.0545 8.72538 88.4446 8.88068C88.8348 9.03598 89.1965 9.24053 89.5298 9.49432C89.8632 9.74811 90.1321 10.0625 90.3366 10.4375C90.545 10.8125 90.6491 11.2614 90.6491 11.7841C90.6491 12.4432 90.4787 13.0284 90.1378 13.5398C89.8007 14.0511 89.3101 14.4545 88.6662 14.75C88.026 15.0455 87.2514 15.1932 86.3423 15.1932C85.4711 15.1932 84.7173 15.0549 84.081 14.7784C83.4446 14.5019 82.9465 14.1098 82.5866 13.6023C82.2268 13.0909 82.0279 12.4848 81.9901 11.7841H83.7514C83.7855 12.2045 83.9219 12.5549 84.1605 12.8352C84.4029 13.1117 84.7116 13.3182 85.0866 13.4545C85.4654 13.5871 85.8802 13.6534 86.331 13.6534C86.8272 13.6534 87.2685 13.5758 87.6548 13.4205C88.045 13.2614 88.3518 13.0417 88.5753 12.7614C88.7988 12.4773 88.9105 12.1458 88.9105 11.767C88.9105 11.4223 88.812 11.1402 88.6151 10.9205C88.4219 10.7008 88.1586 10.5189 87.8253 10.375C87.4957 10.2311 87.1226 10.1042 86.706 9.99432L85.331 9.61932C84.3991 9.36553 83.6605 8.99242 83.1151 8.5C82.5734 8.00758 82.3026 7.35606 82.3026 6.54545C82.3026 5.875 82.4844 5.28977 82.848 4.78977C83.2116 4.28977 83.7041 3.90151 84.3253 3.625C84.9465 3.3447 85.6473 3.20455 86.4276 3.20455C87.2154 3.20455 87.9105 3.3428 88.5128 3.61932C89.1188 3.89583 89.5961 4.27652 89.9446 4.76136C90.2931 5.24242 90.4749 5.79545 90.4901 6.42045H88.7969ZM93.6847 18.2727C93.4309 18.2727 93.1998 18.2519 92.9915 18.2102C92.7831 18.1723 92.6278 18.1307 92.5256 18.0852L92.9347 16.6932C93.2453 16.7765 93.5218 16.8125 93.7642 16.8011C94.0066 16.7898 94.2206 16.6989 94.4062 16.5284C94.5956 16.358 94.7623 16.0795 94.9062 15.6932L95.1165 15.1136L91.9233 6.27273H93.7415L95.9517 13.0455H96.0426L98.2528 6.27273H100.077L96.4801 16.1648C96.3134 16.6193 96.1013 17.0038 95.8438 17.3182C95.5862 17.6364 95.2794 17.875 94.9233 18.0341C94.5672 18.1932 94.1544 18.2727 93.6847 18.2727ZM108.213 8.40341L106.673 8.67614C106.609 8.47917 106.507 8.29167 106.366 8.11364C106.23 7.93561 106.045 7.78977 105.81 7.67614C105.575 7.5625 105.281 7.50568 104.929 7.50568C104.448 7.50568 104.046 7.61364 103.724 7.82955C103.402 8.04167 103.241 8.31629 103.241 8.65341C103.241 8.94508 103.349 9.17992 103.565 9.35795C103.781 9.53598 104.13 9.68182 104.611 9.79545L105.997 10.1136C106.8 10.2992 107.399 10.5852 107.793 10.9716C108.187 11.358 108.384 11.8598 108.384 12.4773C108.384 13 108.232 13.4659 107.929 13.875C107.63 14.2803 107.211 14.5985 106.673 14.8295C106.139 15.0606 105.52 15.1761 104.815 15.1761C103.838 15.1761 103.041 14.9678 102.423 14.5511C101.806 14.1307 101.427 13.5341 101.287 12.7614L102.929 12.5114C103.031 12.9394 103.241 13.2633 103.56 13.483C103.878 13.6989 104.293 13.8068 104.804 13.8068C105.361 13.8068 105.806 13.6913 106.139 13.4602C106.473 13.2254 106.639 12.9394 106.639 12.6023C106.639 12.3295 106.537 12.1004 106.332 11.9148C106.132 11.7292 105.823 11.589 105.406 11.4943L103.929 11.1705C103.115 10.9848 102.512 10.6894 102.122 10.2841C101.736 9.87879 101.543 9.36553 101.543 8.74432C101.543 8.22917 101.687 7.77841 101.974 7.39205C102.262 7.00568 102.66 6.70455 103.168 6.48864C103.675 6.26894 104.257 6.15909 104.912 6.15909C105.855 6.15909 106.598 6.36364 107.139 6.77273C107.681 7.17803 108.039 7.72159 108.213 8.40341ZM114.325 6.27273V7.63636H109.558V6.27273H114.325ZM110.837 4.18182H112.536V12.4375C112.536 12.767 112.585 13.0152 112.683 13.1818C112.782 13.3447 112.909 13.4564 113.064 13.517C113.223 13.5739 113.395 13.6023 113.581 13.6023C113.717 13.6023 113.837 13.5928 113.939 13.5739C114.041 13.5549 114.121 13.5398 114.178 13.5284L114.484 14.9318C114.386 14.9697 114.246 15.0076 114.064 15.0455C113.882 15.0871 113.655 15.1098 113.382 15.1136C112.935 15.1212 112.518 15.0417 112.132 14.875C111.746 14.7083 111.433 14.4508 111.195 14.1023C110.956 13.7538 110.837 13.3163 110.837 12.7898V4.18182ZM119.872 15.1761C119.012 15.1761 118.272 14.9924 117.651 14.625C117.033 14.2538 116.556 13.733 116.219 13.0625C115.885 12.3883 115.719 11.5985 115.719 10.6932C115.719 9.79924 115.885 9.01136 116.219 8.32955C116.556 7.64773 117.026 7.11553 117.628 6.73295C118.234 6.35038 118.942 6.15909 119.753 6.15909C120.245 6.15909 120.723 6.24053 121.185 6.40341C121.647 6.56629 122.062 6.82197 122.429 7.17045C122.796 7.51894 123.086 7.97159 123.298 8.52841C123.51 9.08144 123.616 9.75379 123.616 10.5455V11.1477H116.679V9.875H121.952C121.952 9.42803 121.861 9.0322 121.679 8.6875C121.497 8.33902 121.241 8.06439 120.912 7.86364C120.586 7.66288 120.204 7.5625 119.764 7.5625C119.287 7.5625 118.87 7.67992 118.514 7.91477C118.162 8.14583 117.889 8.44886 117.696 8.82386C117.507 9.19508 117.412 9.59848 117.412 10.0341V11.0284C117.412 11.6117 117.514 12.108 117.719 12.517C117.927 12.9261 118.217 13.2386 118.588 13.4545C118.959 13.6667 119.393 13.7727 119.889 13.7727C120.211 13.7727 120.505 13.7273 120.77 13.6364C121.035 13.5417 121.264 13.4015 121.457 13.2159C121.651 13.0303 121.798 12.8011 121.901 12.5284L123.509 12.8182C123.38 13.2917 123.149 13.7064 122.815 14.0625C122.486 14.4148 122.071 14.6894 121.571 14.8864C121.075 15.0795 120.509 15.1761 119.872 15.1761ZM125.501 15V6.27273H127.132V7.69318H127.24C127.422 7.21212 127.719 6.83712 128.132 6.56818C128.545 6.29545 129.039 6.15909 129.615 6.15909C130.198 6.15909 130.687 6.29545 131.081 6.56818C131.479 6.84091 131.772 7.21591 131.962 7.69318H132.053C132.261 7.22727 132.592 6.85606 133.047 6.57955C133.501 6.29924 134.043 6.15909 134.672 6.15909C135.464 6.15909 136.109 6.4072 136.609 6.90341C137.113 7.39962 137.365 8.14773 137.365 9.14773V15H135.666V9.30682C135.666 8.71591 135.505 8.28788 135.183 8.02273C134.861 7.75758 134.477 7.625 134.03 7.625C133.477 7.625 133.047 7.79545 132.74 8.13636C132.433 8.47348 132.28 8.9072 132.28 9.4375V15H130.587V9.19886C130.587 8.72538 130.439 8.3447 130.143 8.05682C129.848 7.76894 129.464 7.625 128.99 7.625C128.668 7.625 128.371 7.71023 128.098 7.88068C127.829 8.04735 127.611 8.2803 127.445 8.57955C127.282 8.87879 127.2 9.22538 127.2 9.61932V15H125.501Z" fill="#787486"/>
<circle cx="4" cy="9" r="4" fill="#E4CCFD"/>
</svg>
