<svg width="225" height="39" viewBox="0 0 225 39" fill="none" xmlns="http://www.w3.org/2000/svg">
<rect width="225" height="39" rx="6" fill="#5030E5" fill-opacity="0"/>
<path d="M37.1477 13.3636H39.7273L43.1818 21.7955H43.3182L46.7727 13.3636H49.3523V25H47.3295V17.0057H47.2216L44.0057 24.9659H42.4943L39.2784 16.9886H39.1705V25H37.1477V13.3636ZM55.3636 25.1705C54.5114 25.1705 53.7727 24.983 53.1477 24.608C52.5227 24.233 52.0379 23.7083 51.6932 23.0341C51.3523 22.3598 51.1818 21.572 51.1818 20.6705C51.1818 19.7689 51.3523 18.9792 51.6932 18.3011C52.0379 17.6231 52.5227 17.0966 53.1477 16.7216C53.7727 16.3466 54.5114 16.1591 55.3636 16.1591C56.2159 16.1591 56.9545 16.3466 57.5795 16.7216C58.2045 17.0966 58.6875 17.6231 59.0284 18.3011C59.3731 18.9792 59.5455 19.7689 59.5455 20.6705C59.5455 21.572 59.3731 22.3598 59.0284 23.0341C58.6875 23.7083 58.2045 24.233 57.5795 24.608C56.9545 24.983 56.2159 25.1705 55.3636 25.1705ZM55.375 23.5227C55.8371 23.5227 56.2235 23.3958 56.5341 23.142C56.8447 22.8845 57.0758 22.5398 57.2273 22.108C57.3826 21.6761 57.4602 21.1951 57.4602 20.6648C57.4602 20.1307 57.3826 19.6477 57.2273 19.2159C57.0758 18.7803 56.8447 18.4337 56.5341 18.1761C56.2235 17.9186 55.8371 17.7898 55.375 17.7898C54.9015 17.7898 54.5076 17.9186 54.1932 18.1761C53.8826 18.4337 53.6496 18.7803 53.4943 19.2159C53.3428 19.6477 53.267 20.1307 53.267 20.6648C53.267 21.1951 53.3428 21.6761 53.4943 22.108C53.6496 22.5398 53.8826 22.8845 54.1932 23.142C54.5076 23.3958 54.9015 23.5227 55.375 23.5227ZM61.3821 25V13.3636H63.4389V17.7159H63.5241C63.6302 17.5038 63.7798 17.2784 63.973 17.0398C64.1662 16.7973 64.4276 16.5909 64.7571 16.4205C65.0866 16.2462 65.5071 16.1591 66.0185 16.1591C66.6927 16.1591 67.3007 16.3314 67.8423 16.6761C68.3878 17.017 68.8196 17.5227 69.1378 18.1932C69.4598 18.8598 69.6207 19.678 69.6207 20.6477C69.6207 21.6061 69.4635 22.4205 69.1491 23.0909C68.8348 23.7614 68.4067 24.2727 67.8651 24.625C67.3234 24.9773 66.7098 25.1534 66.0241 25.1534C65.5241 25.1534 65.1094 25.0701 64.7798 24.9034C64.4503 24.7367 64.1851 24.536 63.9844 24.3011C63.7874 24.0625 63.634 23.8371 63.5241 23.625H63.4048V25H61.3821ZM63.3991 20.6364C63.3991 21.2008 63.4787 21.6951 63.6378 22.1193C63.8007 22.5436 64.0336 22.875 64.3366 23.1136C64.6435 23.3485 65.0147 23.4659 65.4503 23.4659C65.9048 23.4659 66.2855 23.3447 66.5923 23.1023C66.8991 22.8561 67.1302 22.5208 67.2855 22.0966C67.4446 21.6686 67.5241 21.1818 67.5241 20.6364C67.5241 20.0947 67.4465 19.6136 67.2912 19.1932C67.1359 18.7727 66.9048 18.4432 66.598 18.2045C66.2912 17.9659 65.9086 17.8466 65.4503 17.8466C65.0109 17.8466 64.6378 17.9621 64.331 18.1932C64.0241 18.4242 63.7912 18.7481 63.6321 19.1648C63.4768 19.5814 63.3991 20.072 63.3991 20.6364ZM71.3693 25V16.2727H73.4261V25H71.3693ZM72.4034 15.0341C72.0777 15.0341 71.7973 14.9261 71.5625 14.7102C71.3277 14.4905 71.2102 14.2273 71.2102 13.9205C71.2102 13.6098 71.3277 13.3466 71.5625 13.1307C71.7973 12.911 72.0777 12.8011 72.4034 12.8011C72.733 12.8011 73.0133 12.911 73.2443 13.1307C73.4792 13.3466 73.5966 13.6098 73.5966 13.9205C73.5966 14.2273 73.4792 14.4905 73.2443 14.7102C73.0133 14.9261 72.733 15.0341 72.4034 15.0341ZM77.598 13.3636V25H75.5412V13.3636H77.598ZM83.5767 25.1705C82.7017 25.1705 81.946 24.9886 81.3097 24.625C80.6771 24.2576 80.1903 23.7386 79.8494 23.0682C79.5085 22.3939 79.3381 21.6004 79.3381 20.6875C79.3381 19.7898 79.5085 19.0019 79.8494 18.3239C80.1941 17.642 80.6752 17.1117 81.2926 16.733C81.91 16.3504 82.6354 16.1591 83.4688 16.1591C84.0066 16.1591 84.5142 16.2462 84.9915 16.4205C85.4725 16.5909 85.8968 16.8561 86.2642 17.2159C86.6354 17.5758 86.9271 18.0341 87.1392 18.5909C87.3513 19.1439 87.4574 19.803 87.4574 20.5682V21.1989H80.304V19.8125H85.4858C85.482 19.4186 85.3968 19.0682 85.2301 18.7614C85.0634 18.4508 84.8305 18.2064 84.5312 18.0284C84.2358 17.8504 83.8911 17.7614 83.4972 17.7614C83.0767 17.7614 82.7074 17.8636 82.3892 18.0682C82.071 18.2689 81.8229 18.5341 81.6449 18.8636C81.4706 19.1894 81.3816 19.5473 81.3778 19.9375V21.1477C81.3778 21.6553 81.4706 22.0909 81.6562 22.4545C81.8419 22.8144 82.1013 23.0909 82.4347 23.2841C82.768 23.4735 83.1581 23.5682 83.6051 23.5682C83.9044 23.5682 84.1752 23.5265 84.4176 23.4432C84.66 23.3561 84.8703 23.2292 85.0483 23.0625C85.2263 22.8958 85.3608 22.6894 85.4517 22.4432L87.3722 22.6591C87.2509 23.1667 87.0199 23.6098 86.679 23.9886C86.3419 24.3636 85.91 24.6553 85.3835 24.8636C84.857 25.0682 84.2547 25.1705 83.5767 25.1705ZM94.7514 25H92.5014L96.598 13.3636H99.2003L103.303 25H101.053L97.9446 15.75H97.8537L94.7514 25ZM94.8253 20.4375H100.962V22.1307H94.8253V20.4375ZM104.744 28.2727V16.2727H106.767V17.7159H106.886C106.992 17.5038 107.142 17.2784 107.335 17.0398C107.528 16.7973 107.79 16.5909 108.119 16.4205C108.449 16.2462 108.869 16.1591 109.381 16.1591C110.055 16.1591 110.663 16.3314 111.205 16.6761C111.75 17.017 112.182 17.5227 112.5 18.1932C112.822 18.8598 112.983 19.678 112.983 20.6477C112.983 21.6061 112.826 22.4205 112.511 23.0909C112.197 23.7614 111.769 24.2727 111.227 24.625C110.686 24.9773 110.072 25.1534 109.386 25.1534C108.886 25.1534 108.472 25.0701 108.142 24.9034C107.813 24.7367 107.547 24.536 107.347 24.3011C107.15 24.0625 106.996 23.8371 106.886 23.625H106.801V28.2727H104.744ZM106.761 20.6364C106.761 21.2008 106.841 21.6951 107 22.1193C107.163 22.5436 107.396 22.875 107.699 23.1136C108.006 23.3485 108.377 23.4659 108.812 23.4659C109.267 23.4659 109.648 23.3447 109.955 23.1023C110.261 22.8561 110.492 22.5208 110.648 22.0966C110.807 21.6686 110.886 21.1818 110.886 20.6364C110.886 20.0947 110.809 19.6136 110.653 19.1932C110.498 18.7727 110.267 18.4432 109.96 18.2045C109.653 17.9659 109.271 17.8466 108.812 17.8466C108.373 17.8466 108 17.9621 107.693 18.1932C107.386 18.4242 107.153 18.7481 106.994 19.1648C106.839 19.5814 106.761 20.072 106.761 20.6364ZM114.744 28.2727V16.2727H116.767V17.7159H116.886C116.992 17.5038 117.142 17.2784 117.335 17.0398C117.528 16.7973 117.79 16.5909 118.119 16.4205C118.449 16.2462 118.869 16.1591 119.381 16.1591C120.055 16.1591 120.663 16.3314 121.205 16.6761C121.75 17.017 122.182 17.5227 122.5 18.1932C122.822 18.8598 122.983 19.678 122.983 20.6477C122.983 21.6061 122.826 22.4205 122.511 23.0909C122.197 23.7614 121.769 24.2727 121.227 24.625C120.686 24.9773 120.072 25.1534 119.386 25.1534C118.886 25.1534 118.472 25.0701 118.142 24.9034C117.813 24.7367 117.547 24.536 117.347 24.3011C117.15 24.0625 116.996 23.8371 116.886 23.625H116.801V28.2727H114.744ZM116.761 20.6364C116.761 21.2008 116.841 21.6951 117 22.1193C117.163 22.5436 117.396 22.875 117.699 23.1136C118.006 23.3485 118.377 23.4659 118.812 23.4659C119.267 23.4659 119.648 23.3447 119.955 23.1023C120.261 22.8561 120.492 22.5208 120.648 22.0966C120.807 21.6686 120.886 21.1818 120.886 20.6364C120.886 20.0947 120.809 19.6136 120.653 19.1932C120.498 18.7727 120.267 18.4432 119.96 18.2045C119.653 17.9659 119.271 17.8466 118.812 17.8466C118.373 17.8466 118 17.9621 117.693 18.1932C117.386 18.4242 117.153 18.7481 116.994 19.1648C116.839 19.5814 116.761 20.072 116.761 20.6364Z" fill="#0D062D"/>
<path d="M197.443 21.1648C197.034 21.1648 196.684 21.0208 196.392 20.733C196.104 20.4451 195.962 20.0966 195.966 19.6875C195.962 19.286 196.104 18.9432 196.392 18.6591C196.684 18.3712 197.034 18.2273 197.443 18.2273C197.83 18.2273 198.17 18.3712 198.466 18.6591C198.765 18.9432 198.917 19.286 198.92 19.6875C198.917 19.9602 198.845 20.2083 198.705 20.4318C198.568 20.6553 198.388 20.8333 198.165 20.9659C197.945 21.0985 197.705 21.1648 197.443 21.1648ZM202.781 21.1648C202.372 21.1648 202.022 21.0208 201.73 20.733C201.442 20.4451 201.3 20.0966 201.304 19.6875C201.3 19.286 201.442 18.9432 201.73 18.6591C202.022 18.3712 202.372 18.2273 202.781 18.2273C203.168 18.2273 203.509 18.3712 203.804 18.6591C204.103 18.9432 204.255 19.286 204.259 19.6875C204.255 19.9602 204.183 20.2083 204.043 20.4318C203.906 20.6553 203.726 20.8333 203.503 20.9659C203.283 21.0985 203.043 21.1648 202.781 21.1648ZM208.119 21.1648C207.71 21.1648 207.36 21.0208 207.068 20.733C206.78 20.4451 206.638 20.0966 206.642 19.6875C206.638 19.286 206.78 18.9432 207.068 18.6591C207.36 18.3712 207.71 18.2273 208.119 18.2273C208.506 18.2273 208.847 18.3712 209.142 18.6591C209.441 18.9432 209.593 19.286 209.597 19.6875C209.593 19.9602 209.521 20.2083 209.381 20.4318C209.244 20.6553 209.065 20.8333 208.841 20.9659C208.621 21.0985 208.381 21.1648 208.119 21.1648Z" fill="#0D062D"/>
<circle cx="16" cy="19" r="4" fill="#7AC555"/>
</svg>
