<svg width="162" height="19" viewBox="0 0 162 19" fill="none" xmlns="http://www.w3.org/2000/svg">
<path d="M27.5568 15L24.3295 3.36364H26.1761L28.4432 12.375H28.5511L30.9091 3.36364H32.7386L35.0966 12.3807H35.2045L37.4659 3.36364H39.3182L36.0852 15H34.3182L31.8693 6.28409H31.7784L29.3295 15H27.5568ZM43.6847 15.1761C42.8248 15.1761 42.0843 14.9924 41.4631 14.625C40.8456 14.2538 40.3684 13.733 40.0312 13.0625C39.6979 12.3883 39.5312 11.5985 39.5312 10.6932C39.5312 9.79924 39.6979 9.01136 40.0312 8.32955C40.3684 7.64773 40.8381 7.11553 41.4403 6.73295C42.0464 6.35038 42.7547 6.15909 43.5653 6.15909C44.0578 6.15909 44.535 6.24053 44.9972 6.40341C45.4593 6.56629 45.8741 6.82197 46.2415 7.17045C46.6089 7.51894 46.8987 7.97159 47.1108 8.52841C47.3229 9.08144 47.429 9.75379 47.429 10.5455V11.1477H40.4915V9.875H45.7642C45.7642 9.42803 45.6733 9.0322 45.4915 8.6875C45.3097 8.33902 45.054 8.06439 44.7244 7.86364C44.3987 7.66288 44.0161 7.5625 43.5767 7.5625C43.0994 7.5625 42.6828 7.67992 42.3267 7.91477C41.9744 8.14583 41.7017 8.44886 41.5085 8.82386C41.3191 9.19508 41.2244 9.59848 41.2244 10.0341V11.0284C41.2244 11.6117 41.3267 12.108 41.5312 12.517C41.7396 12.9261 42.0294 13.2386 42.4006 13.4545C42.7718 13.6667 43.2055 13.7727 43.7017 13.7727C44.0237 13.7727 44.3172 13.7273 44.5824 13.6364C44.8475 13.5417 45.0767 13.4015 45.2699 13.2159C45.4631 13.0303 45.6108 12.8011 45.7131 12.5284L47.321 12.8182C47.1922 13.2917 46.9612 13.7064 46.6278 14.0625C46.2983 14.4148 45.8835 14.6894 45.3835 14.8864C44.8873 15.0795 44.321 15.1761 43.6847 15.1761ZM49.4503 15V3.36364H51.1491V7.6875H51.2514C51.3499 7.50568 51.492 7.29545 51.6776 7.05682C51.8632 6.81818 52.1207 6.60985 52.4503 6.43182C52.7798 6.25 53.2154 6.15909 53.7571 6.15909C54.4616 6.15909 55.0904 6.33712 55.6435 6.69318C56.1965 7.04924 56.6302 7.5625 56.9446 8.23295C57.2628 8.90341 57.4219 9.71023 57.4219 10.6534C57.4219 11.5966 57.2647 12.4053 56.9503 13.0795C56.6359 13.75 56.2041 14.267 55.6548 14.6307C55.1056 14.9905 54.4787 15.1705 53.7741 15.1705C53.2438 15.1705 52.8101 15.0814 52.473 14.9034C52.1397 14.7254 51.8783 14.517 51.6889 14.2784C51.4995 14.0398 51.3537 13.8277 51.2514 13.642H51.1094V15H49.4503ZM51.1151 10.6364C51.1151 11.25 51.2041 11.7879 51.3821 12.25C51.5601 12.7121 51.8177 13.0739 52.1548 13.3352C52.492 13.5928 52.9048 13.7216 53.3935 13.7216C53.901 13.7216 54.3253 13.5871 54.6662 13.3182C55.0071 13.0455 55.2647 12.6761 55.4389 12.2102C55.617 11.7443 55.706 11.2197 55.706 10.6364C55.706 10.0606 55.6188 9.54356 55.4446 9.08523C55.2741 8.62689 55.0166 8.26515 54.6719 8C54.331 7.73485 53.9048 7.60227 53.3935 7.60227C52.901 7.60227 52.4844 7.72917 52.1435 7.98295C51.8063 8.23674 51.5507 8.59091 51.3764 9.04545C51.2022 9.5 51.1151 10.0303 51.1151 10.6364ZM65.8693 8.40341L64.3295 8.67614C64.2652 8.47917 64.1629 8.29167 64.0227 8.11364C63.8864 7.93561 63.7008 7.78977 63.4659 7.67614C63.2311 7.5625 62.9375 7.50568 62.5852 7.50568C62.1042 7.50568 61.7027 7.61364 61.3807 7.82955C61.0587 8.04167 60.8977 8.31629 60.8977 8.65341C60.8977 8.94508 61.0057 9.17992 61.2216 9.35795C61.4375 9.53598 61.786 9.68182 62.267 9.79545L63.6534 10.1136C64.4564 10.2992 65.0549 10.5852 65.4489 10.9716C65.8428 11.358 66.0398 11.8598 66.0398 12.4773C66.0398 13 65.8883 13.4659 65.5852 13.875C65.286 14.2803 64.8674 14.5985 64.3295 14.8295C63.7955 15.0606 63.1761 15.1761 62.4716 15.1761C61.4943 15.1761 60.697 14.9678 60.0795 14.5511C59.4621 14.1307 59.0833 13.5341 58.9432 12.7614L60.5852 12.5114C60.6875 12.9394 60.8977 13.2633 61.2159 13.483C61.5341 13.6989 61.9489 13.8068 62.4602 13.8068C63.017 13.8068 63.4621 13.6913 63.7955 13.4602C64.1288 13.2254 64.2955 12.9394 64.2955 12.6023C64.2955 12.3295 64.1932 12.1004 63.9886 11.9148C63.7879 11.7292 63.4792 11.589 63.0625 11.4943L61.5852 11.1705C60.7708 10.9848 60.1686 10.6894 59.7784 10.2841C59.392 9.87879 59.1989 9.36553 59.1989 8.74432C59.1989 8.22917 59.3428 7.77841 59.6307 7.39205C59.9186 7.00568 60.3163 6.70455 60.8239 6.48864C61.3314 6.26894 61.9129 6.15909 62.5682 6.15909C63.5114 6.15909 64.2538 6.36364 64.7955 6.77273C65.3371 7.17803 65.6951 7.72159 65.8693 8.40341ZM67.9077 15V6.27273H69.6065V15H67.9077ZM68.7656 4.92614C68.4702 4.92614 68.2164 4.82765 68.0043 4.63068C67.7959 4.42992 67.6918 4.19129 67.6918 3.91477C67.6918 3.63447 67.7959 3.39583 68.0043 3.19886C68.2164 2.99811 68.4702 2.89773 68.7656 2.89773C69.0611 2.89773 69.313 2.99811 69.5213 3.19886C69.7334 3.39583 69.8395 3.63447 69.8395 3.91477C69.8395 4.19129 69.7334 4.42992 69.5213 4.63068C69.313 4.82765 69.0611 4.92614 68.7656 4.92614ZM75.9659 6.27273V7.63636H71.1989V6.27273H75.9659ZM72.4773 4.18182H74.1761V12.4375C74.1761 12.767 74.2254 13.0152 74.3239 13.1818C74.4223 13.3447 74.5492 13.4564 74.7045 13.517C74.8636 13.5739 75.036 13.6023 75.2216 13.6023C75.358 13.6023 75.4773 13.5928 75.5795 13.5739C75.6818 13.5549 75.7614 13.5398 75.8182 13.5284L76.125 14.9318C76.0265 14.9697 75.8864 15.0076 75.7045 15.0455C75.5227 15.0871 75.2955 15.1098 75.0227 15.1136C74.5758 15.1212 74.1591 15.0417 73.7727 14.875C73.3864 14.7083 73.0739 14.4508 72.8352 14.1023C72.5966 13.7538 72.4773 13.3163 72.4773 12.7898V4.18182ZM81.5128 15.1761C80.6529 15.1761 79.9124 14.9924 79.2912 14.625C78.6738 14.2538 78.1965 13.733 77.8594 13.0625C77.526 12.3883 77.3594 11.5985 77.3594 10.6932C77.3594 9.79924 77.526 9.01136 77.8594 8.32955C78.1965 7.64773 78.6662 7.11553 79.2685 6.73295C79.8745 6.35038 80.5829 6.15909 81.3935 6.15909C81.8859 6.15909 82.3632 6.24053 82.8253 6.40341C83.2874 6.56629 83.7022 6.82197 84.0696 7.17045C84.437 7.51894 84.7268 7.97159 84.9389 8.52841C85.151 9.08144 85.2571 9.75379 85.2571 10.5455V11.1477H78.3196V9.875H83.5923C83.5923 9.42803 83.5014 9.0322 83.3196 8.6875C83.1378 8.33902 82.8821 8.06439 82.5526 7.86364C82.2268 7.66288 81.8442 7.5625 81.4048 7.5625C80.9276 7.5625 80.5109 7.67992 80.1548 7.91477C79.8026 8.14583 79.5298 8.44886 79.3366 8.82386C79.1473 9.19508 79.0526 9.59848 79.0526 10.0341V11.0284C79.0526 11.6117 79.1548 12.108 79.3594 12.517C79.5677 12.9261 79.8575 13.2386 80.2287 13.4545C80.5999 13.6667 81.0336 13.7727 81.5298 13.7727C81.8518 13.7727 82.1454 13.7273 82.4105 13.6364C82.6757 13.5417 82.9048 13.4015 83.098 13.2159C83.2912 13.0303 83.4389 12.8011 83.5412 12.5284L85.1491 12.8182C85.0204 13.2917 84.7893 13.7064 84.456 14.0625C84.1264 14.4148 83.7116 14.6894 83.2116 14.8864C82.7154 15.0795 82.1491 15.1761 81.5128 15.1761ZM91.5128 15V3.36364H95.6605C96.562 3.36364 97.3101 3.51894 97.9048 3.82955C98.5033 4.14015 98.9503 4.57008 99.2457 5.11932C99.5412 5.66477 99.6889 6.29545 99.6889 7.01136C99.6889 7.72348 99.5393 8.35038 99.2401 8.89205C98.9446 9.42992 98.4976 9.84848 97.8991 10.1477C97.3045 10.447 96.5563 10.5966 95.6548 10.5966H92.5128V9.08523H95.4957C96.0639 9.08523 96.526 9.00379 96.8821 8.84091C97.242 8.67803 97.5052 8.44129 97.6719 8.13068C97.8385 7.82008 97.9219 7.44697 97.9219 7.01136C97.9219 6.57197 97.8366 6.19129 97.6662 5.86932C97.4995 5.54735 97.2363 5.30114 96.8764 5.13068C96.5204 4.95644 96.0526 4.86932 95.473 4.86932H93.2685V15H91.5128ZM97.2571 9.75L100.132 15H98.1321L95.3139 9.75H97.2571ZM105.341 15.1761C104.481 15.1761 103.741 14.9924 103.119 14.625C102.502 14.2538 102.025 13.733 101.688 13.0625C101.354 12.3883 101.188 11.5985 101.188 10.6932C101.188 9.79924 101.354 9.01136 101.688 8.32955C102.025 7.64773 102.494 7.11553 103.097 6.73295C103.703 6.35038 104.411 6.15909 105.222 6.15909C105.714 6.15909 106.191 6.24053 106.653 6.40341C107.116 6.56629 107.53 6.82197 107.898 7.17045C108.265 7.51894 108.555 7.97159 108.767 8.52841C108.979 9.08144 109.085 9.75379 109.085 10.5455V11.1477H102.148V9.875H107.42C107.42 9.42803 107.33 9.0322 107.148 8.6875C106.966 8.33902 106.71 8.06439 106.381 7.86364C106.055 7.66288 105.672 7.5625 105.233 7.5625C104.756 7.5625 104.339 7.67992 103.983 7.91477C103.631 8.14583 103.358 8.44886 103.165 8.82386C102.975 9.19508 102.881 9.59848 102.881 10.0341V11.0284C102.881 11.6117 102.983 12.108 103.188 12.517C103.396 12.9261 103.686 13.2386 104.057 13.4545C104.428 13.6667 104.862 13.7727 105.358 13.7727C105.68 13.7727 105.973 13.7273 106.239 13.6364C106.504 13.5417 106.733 13.4015 106.926 13.2159C107.119 13.0303 107.267 12.8011 107.369 12.5284L108.977 12.8182C108.848 13.2917 108.617 13.7064 108.284 14.0625C107.955 14.4148 107.54 14.6894 107.04 14.8864C106.544 15.0795 105.977 15.1761 105.341 15.1761ZM114.237 15.1705C113.533 15.1705 112.904 14.9905 112.351 14.6307C111.802 14.267 111.37 13.75 111.055 13.0795C110.745 12.4053 110.589 11.5966 110.589 10.6534C110.589 9.71023 110.747 8.90341 111.061 8.23295C111.379 7.5625 111.815 7.04924 112.368 6.69318C112.921 6.33712 113.548 6.15909 114.249 6.15909C114.79 6.15909 115.226 6.25 115.555 6.43182C115.889 6.60985 116.146 6.81818 116.328 7.05682C116.514 7.29545 116.658 7.50568 116.76 7.6875H116.862V3.36364H118.561V15H116.902V13.642H116.76C116.658 13.8277 116.51 14.0398 116.317 14.2784C116.127 14.517 115.866 14.7254 115.533 14.9034C115.199 15.0814 114.768 15.1705 114.237 15.1705ZM114.612 13.7216C115.101 13.7216 115.514 13.5928 115.851 13.3352C116.192 13.0739 116.449 12.7121 116.624 12.25C116.802 11.7879 116.891 11.25 116.891 10.6364C116.891 10.0303 116.804 9.5 116.629 9.04545C116.455 8.59091 116.199 8.23674 115.862 7.98295C115.525 7.72917 115.108 7.60227 114.612 7.60227C114.101 7.60227 113.675 7.73485 113.334 8C112.993 8.26515 112.735 8.62689 112.561 9.08523C112.391 9.54356 112.305 10.0606 112.305 10.6364C112.305 11.2197 112.393 11.7443 112.567 12.2102C112.741 12.6761 112.999 13.0455 113.339 13.3182C113.684 13.5871 114.108 13.7216 114.612 13.7216ZM124.747 15.1761C123.887 15.1761 123.147 14.9924 122.526 14.625C121.908 14.2538 121.431 13.733 121.094 13.0625C120.76 12.3883 120.594 11.5985 120.594 10.6932C120.594 9.79924 120.76 9.01136 121.094 8.32955C121.431 7.64773 121.901 7.11553 122.503 6.73295C123.109 6.35038 123.817 6.15909 124.628 6.15909C125.12 6.15909 125.598 6.24053 126.06 6.40341C126.522 6.56629 126.937 6.82197 127.304 7.17045C127.671 7.51894 127.961 7.97159 128.173 8.52841C128.385 9.08144 128.491 9.75379 128.491 10.5455V11.1477H121.554V9.875H126.827C126.827 9.42803 126.736 9.0322 126.554 8.6875C126.372 8.33902 126.116 8.06439 125.787 7.86364C125.461 7.66288 125.079 7.5625 124.639 7.5625C124.162 7.5625 123.745 7.67992 123.389 7.91477C123.037 8.14583 122.764 8.44886 122.571 8.82386C122.382 9.19508 122.287 9.59848 122.287 10.0341V11.0284C122.287 11.6117 122.389 12.108 122.594 12.517C122.802 12.9261 123.092 13.2386 123.463 13.4545C123.834 13.6667 124.268 13.7727 124.764 13.7727C125.086 13.7727 125.38 13.7273 125.645 13.6364C125.91 13.5417 126.139 13.4015 126.332 13.2159C126.526 13.0303 126.673 12.8011 126.776 12.5284L128.384 12.8182C128.255 13.2917 128.024 13.7064 127.69 14.0625C127.361 14.4148 126.946 14.6894 126.446 14.8864C125.95 15.0795 125.384 15.1761 124.747 15.1761ZM136.916 8.40341L135.376 8.67614C135.312 8.47917 135.21 8.29167 135.07 8.11364C134.933 7.93561 134.748 7.78977 134.513 7.67614C134.278 7.5625 133.984 7.50568 133.632 7.50568C133.151 7.50568 132.75 7.61364 132.428 7.82955C132.106 8.04167 131.945 8.31629 131.945 8.65341C131.945 8.94508 132.053 9.17992 132.268 9.35795C132.484 9.53598 132.833 9.68182 133.314 9.79545L134.7 10.1136C135.503 10.2992 136.102 10.5852 136.496 10.9716C136.89 11.358 137.087 11.8598 137.087 12.4773C137.087 13 136.935 13.4659 136.632 13.875C136.333 14.2803 135.914 14.5985 135.376 14.8295C134.842 15.0606 134.223 15.1761 133.518 15.1761C132.541 15.1761 131.744 14.9678 131.126 14.5511C130.509 14.1307 130.13 13.5341 129.99 12.7614L131.632 12.5114C131.734 12.9394 131.945 13.2633 132.263 13.483C132.581 13.6989 132.996 13.8068 133.507 13.8068C134.064 13.8068 134.509 13.6913 134.842 13.4602C135.176 13.2254 135.342 12.9394 135.342 12.6023C135.342 12.3295 135.24 12.1004 135.036 11.9148C134.835 11.7292 134.526 11.589 134.109 11.4943L132.632 11.1705C131.818 10.9848 131.215 10.6894 130.825 10.2841C130.439 9.87879 130.246 9.36553 130.246 8.74432C130.246 8.22917 130.39 7.77841 130.678 7.39205C130.965 7.00568 131.363 6.70455 131.871 6.48864C132.378 6.26894 132.96 6.15909 133.615 6.15909C134.558 6.15909 135.301 6.36364 135.842 6.77273C136.384 7.17803 136.742 7.72159 136.916 8.40341ZM138.955 15V6.27273H140.653V15H138.955ZM139.812 4.92614C139.517 4.92614 139.263 4.82765 139.051 4.63068C138.843 4.42992 138.739 4.19129 138.739 3.91477C138.739 3.63447 138.843 3.39583 139.051 3.19886C139.263 2.99811 139.517 2.89773 139.812 2.89773C140.108 2.89773 140.36 2.99811 140.568 3.19886C140.78 3.39583 140.886 3.63447 140.886 3.91477C140.886 4.19129 140.78 4.42992 140.568 4.63068C140.36 4.82765 140.108 4.92614 139.812 4.92614ZM146.598 18.4545C145.905 18.4545 145.308 18.3636 144.808 18.1818C144.312 18 143.907 17.7595 143.592 17.4602C143.278 17.161 143.043 16.8333 142.888 16.4773L144.348 15.875C144.45 16.0417 144.587 16.2178 144.757 16.4034C144.931 16.5928 145.166 16.7538 145.462 16.8864C145.761 17.0189 146.145 17.0852 146.615 17.0852C147.259 17.0852 147.791 16.928 148.212 16.6136C148.632 16.303 148.842 15.8068 148.842 15.125V13.4091H148.734C148.632 13.5947 148.484 13.8011 148.291 14.0284C148.102 14.2557 147.84 14.4527 147.507 14.6193C147.174 14.786 146.74 14.8693 146.206 14.8693C145.517 14.8693 144.895 14.7083 144.342 14.3864C143.793 14.0606 143.357 13.5814 143.036 12.9489C142.717 12.3125 142.558 11.5303 142.558 10.6023C142.558 9.67424 142.715 8.87879 143.03 8.21591C143.348 7.55303 143.784 7.04545 144.337 6.69318C144.89 6.33712 145.517 6.15909 146.217 6.15909C146.759 6.15909 147.196 6.25 147.53 6.43182C147.863 6.60985 148.123 6.81818 148.308 7.05682C148.498 7.29545 148.643 7.50568 148.746 7.6875H148.871V6.27273H150.536V15.1932C150.536 15.9432 150.361 16.5587 150.013 17.0398C149.664 17.5208 149.193 17.8769 148.598 18.108C148.007 18.339 147.34 18.4545 146.598 18.4545ZM146.581 13.4602C147.07 13.4602 147.482 13.3466 147.82 13.1193C148.161 12.8883 148.418 12.5587 148.592 12.1307C148.77 11.6989 148.859 11.1818 148.859 10.5795C148.859 9.99242 148.772 9.47538 148.598 9.02841C148.424 8.58144 148.168 8.23295 147.831 7.98295C147.494 7.72917 147.077 7.60227 146.581 7.60227C146.07 7.60227 145.643 7.73485 145.303 8C144.962 8.26136 144.704 8.61742 144.53 9.06818C144.359 9.51894 144.274 10.0227 144.274 10.5795C144.274 11.1515 144.361 11.6534 144.536 12.0852C144.71 12.517 144.967 12.8542 145.308 13.0966C145.653 13.339 146.077 13.4602 146.581 13.4602ZM154.513 9.81818V15H152.814V6.27273H154.445V7.69318H154.553C154.753 7.23106 155.068 6.85985 155.496 6.57955C155.928 6.29924 156.471 6.15909 157.126 6.15909C157.721 6.15909 158.242 6.28409 158.689 6.53409C159.136 6.7803 159.482 7.14773 159.729 7.63636C159.975 8.125 160.098 8.72917 160.098 9.44886V15H158.399V9.65341C158.399 9.02083 158.234 8.52652 157.905 8.17045C157.575 7.81061 157.123 7.63068 156.547 7.63068C156.153 7.63068 155.803 7.71591 155.496 7.88636C155.193 8.05682 154.952 8.30682 154.774 8.63636C154.6 8.96212 154.513 9.35606 154.513 9.81818Z" fill="#787486"/>
<circle cx="4" cy="9" r="4" fill="#FFA500"/>
</svg>
