<svg width="113" height="19" viewBox="0 0 113 19" fill="none" xmlns="http://www.w3.org/2000/svg">
<path d="M27.5568 15L24.3295 3.36364H26.1761L28.4432 12.375H28.5511L30.9091 3.36364H32.7386L35.0966 12.3807H35.2045L37.4659 3.36364H39.3182L36.0852 15H34.3182L31.8693 6.28409H31.7784L29.3295 15H27.5568ZM40.7827 15V6.27273H42.4815V15H40.7827ZM41.6406 4.92614C41.3452 4.92614 41.0914 4.82765 40.8793 4.63068C40.6709 4.42992 40.5668 4.19129 40.5668 3.91477C40.5668 3.63447 40.6709 3.39583 40.8793 3.19886C41.0914 2.99811 41.3452 2.89773 41.6406 2.89773C41.9361 2.89773 42.188 2.99811 42.3963 3.19886C42.6084 3.39583 42.7145 3.63447 42.7145 3.91477C42.7145 4.19129 42.6084 4.42992 42.3963 4.63068C42.188 4.82765 41.9361 4.92614 41.6406 4.92614ZM44.767 15V6.27273H46.4091V7.65909H46.5C46.6591 7.18939 46.9394 6.82008 47.3409 6.55114C47.7462 6.27841 48.2045 6.14205 48.7159 6.14205C48.822 6.14205 48.947 6.14583 49.0909 6.15341C49.2386 6.16098 49.3542 6.17045 49.4375 6.18182V7.80682C49.3693 7.78788 49.2481 7.76705 49.0739 7.74432C48.8996 7.7178 48.7254 7.70455 48.5511 7.70455C48.1496 7.70455 47.7917 7.78977 47.4773 7.96023C47.1667 8.12689 46.9205 8.35985 46.7386 8.65909C46.5568 8.95455 46.4659 9.29167 46.4659 9.67045V15H44.767ZM54.3565 15.1761C53.4967 15.1761 52.7562 14.9924 52.1349 14.625C51.5175 14.2538 51.0402 13.733 50.7031 13.0625C50.3698 12.3883 50.2031 11.5985 50.2031 10.6932C50.2031 9.79924 50.3698 9.01136 50.7031 8.32955C51.0402 7.64773 51.5099 7.11553 52.1122 6.73295C52.7183 6.35038 53.4266 6.15909 54.2372 6.15909C54.7296 6.15909 55.2069 6.24053 55.669 6.40341C56.1312 6.56629 56.5459 6.82197 56.9134 7.17045C57.2808 7.51894 57.5705 7.97159 57.7827 8.52841C57.9948 9.08144 58.1009 9.75379 58.1009 10.5455V11.1477H51.1634V9.875H56.4361C56.4361 9.42803 56.3452 9.0322 56.1634 8.6875C55.9815 8.33902 55.7259 8.06439 55.3963 7.86364C55.0705 7.66288 54.688 7.5625 54.2486 7.5625C53.7713 7.5625 53.3546 7.67992 52.9986 7.91477C52.6463 8.14583 52.3736 8.44886 52.1804 8.82386C51.991 9.19508 51.8963 9.59848 51.8963 10.0341V11.0284C51.8963 11.6117 51.9986 12.108 52.2031 12.517C52.4115 12.9261 52.7012 13.2386 53.0724 13.4545C53.4437 13.6667 53.8774 13.7727 54.3736 13.7727C54.6955 13.7727 54.9891 13.7273 55.2543 13.6364C55.5194 13.5417 55.7486 13.4015 55.9418 13.2159C56.1349 13.0303 56.2827 12.8011 56.3849 12.5284L57.9929 12.8182C57.8641 13.2917 57.633 13.7064 57.2997 14.0625C56.9702 14.4148 56.5554 14.6894 56.0554 14.8864C55.5592 15.0795 54.9929 15.1761 54.3565 15.1761ZM64.1392 6.27273V7.63636H59.2074V6.27273H64.1392ZM60.5597 15V5.26136C60.5597 4.71591 60.679 4.26326 60.9176 3.90341C61.1563 3.53977 61.4725 3.26894 61.8665 3.09091C62.2604 2.90909 62.6884 2.81818 63.1506 2.81818C63.4915 2.81818 63.7831 2.84659 64.0256 2.90341C64.268 2.95644 64.4479 3.00568 64.5653 3.05114L64.1676 4.42614C64.0881 4.40341 63.9858 4.37689 63.8608 4.34659C63.7358 4.3125 63.5843 4.29545 63.4062 4.29545C62.9934 4.29545 62.6979 4.39773 62.5199 4.60227C62.3456 4.80682 62.2585 5.10227 62.2585 5.48864V15H60.5597ZM65.892 15V6.27273H67.5341V7.65909H67.625C67.7841 7.18939 68.0644 6.82008 68.4659 6.55114C68.8712 6.27841 69.3295 6.14205 69.8409 6.14205C69.947 6.14205 70.072 6.14583 70.2159 6.15341C70.3636 6.16098 70.4792 6.17045 70.5625 6.18182V7.80682C70.4943 7.78788 70.3731 7.76705 70.1989 7.74432C70.0246 7.7178 69.8504 7.70455 69.6761 7.70455C69.2746 7.70455 68.9167 7.78977 68.6023 7.96023C68.2917 8.12689 68.0455 8.35985 67.8636 8.65909C67.6818 8.95455 67.5909 9.29167 67.5909 9.67045V15H65.892ZM74.4943 15.1932C73.9413 15.1932 73.4413 15.0909 72.9943 14.8864C72.5473 14.678 72.1932 14.3769 71.9318 13.983C71.6742 13.589 71.5455 13.1061 71.5455 12.5341C71.5455 12.0417 71.6402 11.6364 71.8295 11.3182C72.0189 11 72.2746 10.7481 72.5966 10.5625C72.9186 10.3769 73.2784 10.2367 73.6761 10.142C74.0739 10.0473 74.4792 9.97538 74.892 9.92614C75.4148 9.86553 75.839 9.81629 76.1648 9.77841C76.4905 9.73674 76.7273 9.67045 76.875 9.57955C77.0227 9.48864 77.0966 9.34091 77.0966 9.13636V9.09659C77.0966 8.60038 76.9564 8.21591 76.6761 7.94318C76.3996 7.67045 75.9867 7.53409 75.4375 7.53409C74.8655 7.53409 74.4148 7.66098 74.0852 7.91477C73.7595 8.16477 73.5341 8.44318 73.4091 8.75L71.8125 8.38636C72.0019 7.85606 72.2784 7.42803 72.642 7.10227C73.0095 6.77273 73.4318 6.53409 73.9091 6.38636C74.3864 6.23485 74.8883 6.15909 75.4148 6.15909C75.7633 6.15909 76.1326 6.20076 76.5227 6.28409C76.9167 6.36364 77.2841 6.51136 77.625 6.72727C77.9697 6.94318 78.2519 7.25189 78.4716 7.65341C78.6913 8.05114 78.8011 8.56818 78.8011 9.20455V15H77.142V13.8068H77.0739C76.964 14.0265 76.7992 14.2424 76.5795 14.4545C76.3598 14.6667 76.0777 14.8428 75.733 14.983C75.3883 15.1231 74.9754 15.1932 74.4943 15.1932ZM74.8636 13.8295C75.3333 13.8295 75.7348 13.7367 76.0682 13.5511C76.4053 13.3655 76.661 13.1231 76.8352 12.8239C77.0133 12.5208 77.1023 12.197 77.1023 11.8523V10.7273C77.0417 10.7879 76.9242 10.8447 76.75 10.8977C76.5795 10.947 76.3845 10.9905 76.1648 11.0284C75.9451 11.0625 75.7311 11.0947 75.5227 11.125C75.3144 11.1515 75.1402 11.1742 75 11.1932C74.6705 11.2348 74.3693 11.3049 74.0966 11.4034C73.8277 11.5019 73.6117 11.6439 73.4489 11.8295C73.2898 12.0114 73.2102 12.2538 73.2102 12.5568C73.2102 12.9773 73.3655 13.2955 73.6761 13.5114C73.9867 13.7235 74.3826 13.8295 74.8636 13.8295ZM81.0639 15V6.27273H82.6946V7.69318H82.8026C82.9844 7.21212 83.2817 6.83712 83.6946 6.56818C84.1075 6.29545 84.6018 6.15909 85.1776 6.15909C85.7609 6.15909 86.2495 6.29545 86.6435 6.56818C87.0412 6.84091 87.3348 7.21591 87.5241 7.69318H87.6151C87.8234 7.22727 88.1548 6.85606 88.6094 6.57955C89.0639 6.29924 89.6056 6.15909 90.2344 6.15909C91.026 6.15909 91.6719 6.4072 92.1719 6.90341C92.6757 7.39962 92.9276 8.14773 92.9276 9.14773V15H91.2287V9.30682C91.2287 8.71591 91.0677 8.28788 90.7457 8.02273C90.4238 7.75758 90.0393 7.625 89.5923 7.625C89.0393 7.625 88.6094 7.79545 88.3026 8.13636C87.9957 8.47348 87.8423 8.9072 87.8423 9.4375V15H86.1491V9.19886C86.1491 8.72538 86.0014 8.3447 85.706 8.05682C85.4105 7.76894 85.026 7.625 84.5526 7.625C84.2306 7.625 83.9332 7.71023 83.6605 7.88068C83.3916 8.04735 83.1738 8.2803 83.0071 8.57955C82.8442 8.87879 82.7628 9.22538 82.7628 9.61932V15H81.0639ZM98.9659 15.1761C98.1061 15.1761 97.3655 14.9924 96.7443 14.625C96.1269 14.2538 95.6496 13.733 95.3125 13.0625C94.9792 12.3883 94.8125 11.5985 94.8125 10.6932C94.8125 9.79924 94.9792 9.01136 95.3125 8.32955C95.6496 7.64773 96.1193 7.11553 96.7216 6.73295C97.3277 6.35038 98.036 6.15909 98.8466 6.15909C99.339 6.15909 99.8163 6.24053 100.278 6.40341C100.741 6.56629 101.155 6.82197 101.523 7.17045C101.89 7.51894 102.18 7.97159 102.392 8.52841C102.604 9.08144 102.71 9.75379 102.71 10.5455V11.1477H95.7727V9.875H101.045C101.045 9.42803 100.955 9.0322 100.773 8.6875C100.591 8.33902 100.335 8.06439 100.006 7.86364C99.6799 7.66288 99.2973 7.5625 98.858 7.5625C98.3807 7.5625 97.964 7.67992 97.608 7.91477C97.2557 8.14583 96.983 8.44886 96.7898 8.82386C96.6004 9.19508 96.5057 9.59848 96.5057 10.0341V11.0284C96.5057 11.6117 96.608 12.108 96.8125 12.517C97.0208 12.9261 97.3106 13.2386 97.6818 13.4545C98.053 13.6667 98.4867 13.7727 98.983 13.7727C99.3049 13.7727 99.5985 13.7273 99.8636 13.6364C100.129 13.5417 100.358 13.4015 100.551 13.2159C100.744 13.0303 100.892 12.8011 100.994 12.5284L102.602 12.8182C102.473 13.2917 102.242 13.7064 101.909 14.0625C101.58 14.4148 101.165 14.6894 100.665 14.8864C100.169 15.0795 99.6023 15.1761 98.9659 15.1761ZM111.135 8.40341L109.595 8.67614C109.531 8.47917 109.429 8.29167 109.288 8.11364C109.152 7.93561 108.966 7.78977 108.732 7.67614C108.497 7.5625 108.203 7.50568 107.851 7.50568C107.37 7.50568 106.968 7.61364 106.646 7.82955C106.324 8.04167 106.163 8.31629 106.163 8.65341C106.163 8.94508 106.271 9.17992 106.487 9.35795C106.703 9.53598 107.052 9.68182 107.533 9.79545L108.919 10.1136C109.722 10.2992 110.321 10.5852 110.714 10.9716C111.108 11.358 111.305 11.8598 111.305 12.4773C111.305 13 111.154 13.4659 110.851 13.875C110.552 14.2803 110.133 14.5985 109.595 14.8295C109.061 15.0606 108.442 15.1761 107.737 15.1761C106.76 15.1761 105.963 14.9678 105.345 14.5511C104.728 14.1307 104.349 13.5341 104.209 12.7614L105.851 12.5114C105.953 12.9394 106.163 13.2633 106.482 13.483C106.8 13.6989 107.214 13.8068 107.726 13.8068C108.283 13.8068 108.728 13.6913 109.061 13.4602C109.394 13.2254 109.561 12.9394 109.561 12.6023C109.561 12.3295 109.459 12.1004 109.254 11.9148C109.054 11.7292 108.745 11.589 108.328 11.4943L106.851 11.1705C106.036 10.9848 105.434 10.6894 105.044 10.2841C104.658 9.87879 104.464 9.36553 104.464 8.74432C104.464 8.22917 104.608 7.77841 104.896 7.39205C105.184 7.00568 105.582 6.70455 106.089 6.48864C106.597 6.26894 107.179 6.15909 107.834 6.15909C108.777 6.15909 109.519 6.36364 110.061 6.77273C110.603 7.17803 110.961 7.72159 111.135 8.40341Z" fill="#787486"/>
<circle cx="4" cy="9" r="4" fill="#76A5EA"/>
</svg>
